<svg xmlns="http://www.w3.org/2000/svg" viewBox="0 0 253.5 246"><path d="M95.3 244.5c-4 0-7.8.1-11.5-.1-.8 0-1.9-1-2.2-1.7-1.5-4.6-2.7-9.2-4.1-13.9l-11.6-38.2c-1.7-5.9-3-11.9-4.5-17.9-.3-1.3-.7-2.7-1.3-3.9l1.3 75.5H47.6V132.4c4.4 0 8.6-.1 12.8.1.6 0 1.4 1.4 1.7 2.3l8.2 29.5a5775.5 5775.5 0 0112.6 45.5l-1-77.4h13.3l.1 112.1zM105 132.5h16.2v82.7c0 3.8.2 7.7.8 11.4.4 3.1 2 4 5.3 4 3.4 0 5-1 5.7-4 .4-1.5.6-3.1.6-4.7l.1-86v-3.4h16.4v2.7c0 27.2.1 54.3-.1 81.5 0 5.2-.7 10.5-1.9 15.5-2 7.9-8.4 12.7-16.6 13.2-3 .2-6 .2-9-.2-10.9-1.5-15.9-8.7-16.9-18.8-.4-4.1-.5-8.1-.5-12.2v-78.5l-.1-3.2zM53 55c.5-8.3.6-16.7 1.7-24.9.8-6 2.3-12.2 4.8-17.7C63.7 3.1 71-.4 82 .8c10 1 14.8 7.9 17.5 16.5 3 9.4 4 19.2 4.3 29 .5 14.8.5 29.6-2.3 44.3-1 5.2-2.3 10.4-5.1 15a17.7 17.7 0 01-10.6 8.5 24.8 24.8 0 01-15.7-.4c-6.8-2.4-10.3-7.9-12.5-14.3a90.3 90.3 0 01-4-26.4V55H53zm37.5 34.4c-.5-6.5-.6-12-1.3-17.3C87.6 59 86 45.8 83.8 32.8 82.7 26 80.3 19.5 78.2 13a5.5 5.5 0 00-5.7-4c-2.8.3-4 2.4-4.4 4.8-.6 4.1-1.2 8.3-1.1 12.4.6 21.9 3.5 43.6 8 65 1 4.7 3.1 9.3 5.4 13.5 2 3.6 6.3 3 8.1-.7.5-1 1-2.2 1.1-3.3l.9-11.3zM206 244.3h-15.5l-3.9-30.7H173l-3.7 30.7h-14.6l2.4-14.9 8.8-57.7 5.5-36.3c.3-2.1.9-3.2 3.4-3 4.4.2 8.8.1 13.5.1L206 244.3zm-20.9-44.4l-5.9-49.4-5 49.4h10.9zM203.7 113.8h-15.4l-4-30.7h-13.7l-3.4 30.6h-14.7c1-6.8 1.9-13.5 3-20.2l4.4-28.4 6.7-42.6 2.9-19c.1-.6.8-1.6 1.3-1.6l15.2-.1 17.7 112zm-21-44.4l-5.6-48.9h-.4l-4.6 48.9h10.6zM16.5 86.8c.2 2.2.1 4.1.5 5.8.6 2.3 1.2 4.7 2.4 6.7a5.1 5.1 0 008.6.2c1.1-1.7 2.2-3.7 2.4-5.6.4-4.8.7-9.6.3-14.4-.4-5.4-3.4-9.6-7.3-13.3-4.7-4.5-9.7-8.7-13.6-13.7C3 43.5 1.4 33 3.2 21.9 4 17.1 5.1 12.5 8 8.4 12.8 1.7 19.4-.1 27 .7c8.1.8 13.4 5.5 16.1 13 1.2 3.5 2 7.2 3 11.1l-15.4 1.9-2.2-8.7c-.5-2.1-1.6-3.6-4.1-3.6-2.6 0-3.9 1.5-4.3 3.7-1.4 6.6-2.4 13.3 1 19.5 1.8 3.3 4.7 5.9 7.3 8.7 3.1 3.2 6.6 6.1 9.6 9.3 5.6 6 8.6 13.2 9.2 21.3.5 7.3.4 14.7-1.8 21.8-3.9 12.8-12.9 17.7-26.1 16-11.3-1.5-16.7-10.1-18-21.4-.3-4.8-.2-4.8 4.7-5.4l10.5-1.1zM250.4 24.9l-15.2 1.9c-.5-2.7-.9-5.3-1.5-7.9-.5-2.3-1.3-4.4-4.2-4.4-2.5 0-3.7 1.1-4.6 4.3-1.8 6.5-2.3 13.2 1.3 19.2 2.2 3.6 5.6 6.5 8.6 9.6 3.4 3.6 7.1 6.8 10.2 10.6a32.8 32.8 0 017.3 19.3c.6 7.6.3 15.1-2.2 22.4-2.7 8.1-7.8 13.7-16.6 14.9-8.6 1.2-16.6.1-22.1-7.5a30.3 30.3 0 01-5.1-19l15.1-1.5c.3 3 .4 5.6.9 8.2.7 4.2 3.1 6.5 6.6 6.5 2.5 0 4.1-1.3 5.1-3.4 3.3-7 3.9-21.7-3.2-29.6-2-2.2-4.2-4.3-6.6-6.1a41.6 41.6 0 01-13.3-50.3A17.8 17.8 0 01226.5.6c7.5-.6 14.1 1.1 18.8 7.7 3.4 5 4.3 10.6 5.1 16.6zM111.2 2h16.3v3.3l-.1 91.7c0 2.4.7 3.1 3.1 3 5.9-.2 11.8-.1 17.8-.1v13.8h-37.2L111.2 2z"/></svg>